# File created by Blade
# Date/Time:  Tue Sep 30 19:35:54 2014
#---------------------------------------------------------
:version 1.10
:name HOM
:units
  mass 1.0
  length 1.000000
  angle deg
:documentation
     Acclaim Skeleton File
:root
   axis xyz
   order TX TY TZ RX RY RZ
   position 0.000000 0.000000 0.000000
   orientation 0 0 0
:bonedata
   begin
      id 1
      name Spine_dum
      direction 0.000000 1.000000 0.000000
      length 3.241213
      axis 0.0 0.0 0.0 xyz
   end
   begin
      id 2
      name LeftUpLeg_dum
      direction 1.000000 0.000000 0.000000
      length 3.434019
      axis 0.0 0.0 0.0 xyz
   end
   begin
      id 3
      name RightUpLeg_dum
      direction -1.000000 0.000000 0.000000
      length 3.434019
      axis 0.0 0.0 0.0 xyz
   end
   begin
      id 4
      name Spine
      direction 0.000000 1.000000 0.000000
      length 0.000000
      axis 0.0 0.0 0.0 xyz
      dof rx ry rz
   end
   begin
      id 5
      name Spine_dum1
      direction 0.000000 1.000000 0.000000
      length 18.382958
      axis 0.0 0.0 0.0 xyz
   end
   begin
      id 6
      name Spine_dum2
      direction 0.000000 1.000000 0.000000
      length 12.828261
      axis 0.0 0.0 0.0 xyz
   end
   begin
      id 7
      name Spine_dum3
      direction 0.000000 1.000000 0.000000
      length 12.828261
      axis 0.0 0.0 0.0 xyz
   end
   begin
      id 8
      name Head
      direction 0.000000 1.000000 0.000000
      length 4.527550
      axis 0.0 0.0 0.0 xyz
      dof rx ry rz
   end
   begin
      id 9
      name LeftShoulder
      direction 1.000000 0.000000 0.000000
      length 7.748055
      axis 0.0 0.0 -90.0 xyz
      dof rx ry rz
   end
   begin
      id 10
      name LeftArm
      direction 1.000000 0.000000 0.000000
      length 10.635614
      axis 0.0 0.0 -90.0 xyz
      dof rx ry rz
   end
   begin
      id 11
      name LeftForeArm
      direction 1.000000 0.000000 0.000000
      length 8.346755
      axis 0.0 0.0 -90.0 xyz
      dof ry rz rx
   end
   begin
      id 12
      name LeftHand
      direction 0.000000 0.000000 0.000000
      length 0.000000
      axis 0.0 0.0 -90.0 xyz
      dof rx ry rz
   end
   begin
      id 13
      name LeftHand_dum1
      direction 0.000000 0.000000 0.000000
      length 0.000000
      axis 0.0 0.0 -90.0 xyz
   end
   begin
      id 14
      name LeftHand_dum2
      direction 1.000000 0.000000 0.000000
      length 3.937000
      axis 0.0 0.0 -90.0 xyz
   end
   begin
      id 15
      name LeftHandThumb1
      direction 0.000000 0.000000 1.000000
      length 3.937000
      axis 0.0 0.0 -90.0 xyz
      dof rx rz ry
   end
   begin
      id 16
      name RightShoulder
      direction -1.000000 0.000000 0.000000
      length 7.748055
      axis 0.0 0.0 90.0 xyz
      dof rx ry rz
   end
   begin
      id 17
      name RightArm
      direction -1.000000 0.000000 0.000000
      length 10.635614
      axis 0.0 0.0 90.0 xyz
      dof rx ry rz
   end
   begin
      id 18
      name RightForeArm
      direction -1.000000 0.000000 0.000000
      length 8.346755
      axis 0.0 0.0 90.0 xyz
      dof ry rz rx
   end
   begin
      id 19
      name RightHand
      direction 0.000000 0.000000 0.000000
      length 0.000000
      axis 0.0 0.0 90.0 xyz
      dof rx ry rz
   end
   begin
      id 20
      name RightHand_dum1
      direction 0.000000 0.000000 0.000000
      length 0.000000
      axis 0.0 0.0 90.0 xyz
   end
   begin
      id 21
      name RightHand_dum2
      direction -1.000000 0.000000 0.000000
      length 3.937000
      axis 0.0 0.0 90.0 xyz
   end
   begin
      id 22
      name RightHandThumb1
      direction 0.000000 0.000000 1.000000
      length 3.937000
      axis 0.0 0.0 90.0 xyz
      dof rx rz ry
   end
   begin
      id 23
      name LeftUpLeg
      direction 0.000000 -1.000000 0.000000
      length 15.713025
      axis 0.0 0.0 0.0 xyz
      dof rx ry rz
   end
   begin
      id 24
      name LeftLeg
      direction 0.000000 -1.000000 0.000000
      length 14.435119
      axis 0.0 0.0 0.0 xyz
      dof rx ry rz
   end
   begin
      id 25
      name LeftFoot
      direction 0.000000 -0.258819 0.965926
      length 4.938895
      axis 15.0 0.0 0.0 xyz
      dof rx ry rz
   end
   begin
      id 26
      name LeftToeBase
      direction 0.000000 0.000000 1.000000
      length 2.952750
      axis 0.0 0.0 0.0 xyz
      dof rx ry rz
   end
   begin
      id 27
      name RightUpLeg
      direction 0.000000 -1.000000 0.000000
      length 15.713025
      axis 0.0 0.0 0.0 xyz
      dof rx ry rz
   end
   begin
      id 28
      name RightLeg
      direction 0.000000 -1.000000 0.000000
      length 14.435119
      axis 0.0 0.0 0.0 xyz
      dof rx ry rz
   end
   begin
      id 29
      name RightFoot
      direction 0.000000 -0.258819 0.965926
      length 4.938895
      axis 15.0 0.0 0.0 xyz
      dof rx ry rz
   end
   begin
      id 30
      name RightToeBase
      direction 0.000000 0.000000 1.000000
      length 2.952750
      axis 0.0 0.0 0.0 xyz
      dof rx ry rz
   end
:hierarchy
   begin
      root Spine_dum LeftUpLeg_dum RightUpLeg_dum
      Spine_dum Spine
      LeftUpLeg_dum LeftUpLeg
      RightUpLeg_dum RightUpLeg
      Spine Spine_dum1 Spine_dum2 Spine_dum3
      Spine_dum1 Head
      Spine_dum2 LeftShoulder
      Spine_dum3 RightShoulder
      LeftShoulder LeftArm
      LeftArm LeftForeArm
      LeftForeArm LeftHand
      LeftHand LeftHand_dum1 LeftHand_dum2
      LeftHand_dum1 LeftHandThumb1
      RightShoulder RightArm
      RightArm RightForeArm
      RightForeArm RightHand
      RightHand RightHand_dum1 RightHand_dum2
      RightHand_dum1 RightHandThumb1
      LeftUpLeg LeftLeg
      LeftLeg LeftFoot
      LeftFoot LeftToeBase
      RightUpLeg RightLeg
      RightLeg RightFoot
      RightFoot RightToeBase
   end

# File created by Blade
# Date/Time:  Tue Sep 23 19:15:59 2014
# Frame Rate: 120.000 fps
#------------------------------------------------------
:FULLY-SPECIFIED
:DEGREES
232
root 5.098359 32.194226 -5.116719 31.650113 -21.987023 -15.474161
Spine -16.206163 -11.065883 20.650946
Head -13.928696 2.096171 0.803059
LeftShoulder 2.299810 39.290421 22.885395
LeftArm 84.027242 17.291680 -53.376942
LeftForeArm 20.858210 -0.000000 46.228432
LeftHand 48.713740 0.000000 8.031099
LeftHandThumb1 -26.253704 0.000000 33.147579
RightShoulder 6.868343 -41.837896 -17.353088
RightArm 81.559300 -4.941567 53.515379
RightForeArm 47.614582 -0.000000 47.244745
RightHand 9.724841 -0.000000 24.812562
RightHandThumb1 -24.326973 -0.000000 -32.862282
LeftUpLeg -40.096904 5.659521 3.707087
LeftLeg 25.311848 -0.000000 -0.000000
LeftFoot -10.592315 19.245306 13.523628
LeftToeBase 0.700135 -0.000000 -0.000000
RightUpLeg -140.546580 3.556358 12.951035
RightLeg 113.015771 -0.000000 -0.000000
RightFoot 30.715430 -12.900558 11.028024
RightToeBase 43.261234 -0.000000 -0.000000
233
root 5.127511 32.185778 -5.110156 31.638671 -22.331897 -15.423544
Spine -16.145709 -10.902353 20.498343
Head -13.778458 2.055485 1.066454
LeftShoulder 2.226511 39.257631 22.831912
LeftArm 83.885327 17.535233 -53.647366
LeftForeArm 20.993875 -0.000000 46.565923
LeftHand 48.568039 0.000000 7.714660
LeftHandThumb1 -26.253704 0.000000 33.147579
RightShoulder 6.533658 -41.884850 -17.057810
RightArm 81.220517 -4.956035 53.542119
RightForeArm 46.946407 -0.000000 48.109471
RightHand 9.277898 -0.000000 24.392593
RightHandThumb1 -24.326973 -0.000000 -32.862282
LeftUpLeg -40.051326 5.744526 3.518718
LeftLeg 25.319751 -0.000000 -0.000000
LeftFoot -10.598986 19.413814 13.456612
LeftToeBase 0.668512 -0.000000 -0.000000
RightUpLeg -140.356741 3.732622 12.908824
RightLeg 113.151671 -0.000000 -0.000000
RightFoot 31.215953 -12.867575 11.298795
RightToeBase 43.155918 -0.000000 -0.000000
234
root 5.150156 32.177758 -5.100661 31.616102 -22.665916 -15.341739
Spine -16.126019 -10.770314 20.320699
Head -13.600101 1.984399 1.317436
LeftShoulder 2.244245 39.137476 22.865204
LeftArm 83.636469 17.834353 -53.811471
LeftForeArm 21.112539 0.000000 46.822412
LeftHand 48.161713 -0.000000 7.728437
LeftHandThumb1 -26.253704 0.000000 33.147579
RightShoulder 6.105708 -41.916080 -16.723142
RightArm 81.097828 -5.075344 53.695922
RightForeArm 45.953464 -0.000000 48.632057
RightHand 8.861518 -0.000000 24.070253
RightHandThumb1 -24.326973 -0.000000 -32.862282
LeftUpLeg -39.990354 5.843328 3.305276
LeftLeg 25.302545 -0.000000 -0.000000
LeftFoot -10.592810 19.544560 13.466443
LeftToeBase 0.695731 -0.000000 -0.000000
RightUpLeg -140.221135 3.896529 12.852873
RightLeg 113.386633 -0.000000 -0.000000
RightFoot 31.616078 -12.859341 11.645107
RightToeBase 43.090688 -0.000000 -0.000000
235
root 5.169295 32.170097 -5.091998 31.574395 -22.926303 -15.278908
Spine -16.121248 -10.768158 20.213632
Head -13.360737 1.999038 1.534285
LeftShoulder 2.338822 39.007459 22.953666
LeftArm 83.247106 18.134928 -54.184728
LeftForeArm 20.692189 -0.000000 46.949542
LeftHand 48.460035 0.000000 6.676530
LeftHandThumb1 -26.253704 0.000000 33.147579
RightShoulder 5.749910 -41.793739 -16.462507
RightArm 81.060700 -5.285869 53.769732
RightForeArm 45.166639 0.000000 48.911422
RightHand 8.530940 -0.000000 23.852597
RightHandThumb1 -24.326973 -0.000000 -32.862282
LeftUpLeg -39.940241 5.860550 3.170244
LeftLeg 25.341351 -0.000000 -0.000000
LeftFoot -10.615427 19.683704 13.372830
LeftToeBase 0.722348 -0.000000 -0.000000
RightUpLeg -140.100684 4.025215 12.876040
RightLeg 113.678273 -0.000000 -0.000000
RightFoot 31.970424 -12.971783 12.065757
RightToeBase 43.021964 -0.000000 -0.000000
236
root 5.194556 32.160559 -5.142108 32.193247 -23.796454 -15.114847
Spine -16.588793 -10.133517 19.596736
Head -13.111498 2.068749 2.009358
LeftShoulder 2.512773 38.827285 23.422225
LeftArm 82.902190 18.468622 -54.465093
LeftForeArm 20.194782 -0.000000 46.990516
LeftHand 48.708144 -0.000000 6.541054
LeftHandThumb1 -26.253704 0.000000 33.147579
RightShoulder 5.386415 -41.586815 -16.140865
RightArm 81.173015 -5.625143 53.854734
RightForeArm 44.286392 -0.000000 48.928347
RightHand 8.283531 -0.000000 23.553916
RightHandThumb1 -24.326973 -0.000000 -32.862282
LeftUpLeg -40.634498 6.417019 2.583858
LeftLeg 25.414027 -0.000000 -0.000000
LeftFoot -10.550875 19.729770 13.221149
LeftToeBase 0.654280 -0.000000 -0.000000
RightUpLeg -140.708867 4.895145 11.959253
RightLeg 113.660892 -0.000000 -0.000000
RightFoot 32.705048 -13.386234 12.526870
RightToeBase 42.982940 -0.000000 -0.000000
237
root 5.189485 32.164948 -5.107281 31.950154 -23.654639 -15.379758
Spine -16.401868 -10.469670 20.028135
Head -12.834606 2.178220 1.979807
LeftShoulder 2.682585 38.830869 23.378151
LeftArm 82.475494 18.630331 -54.704317
LeftForeArm 19.887933 -0.000000 47.162098
LeftHand 49.041109 -0.000000 6.330562
LeftHandThumb1 -26.253704 0.000000 33.147579
RightShoulder 5.204086 -41.391396 -16.038433
RightArm 81.267559 -5.860950 53.644035
RightForeArm 43.876486 -0.000000 48.781800
RightHand 8.061984 -0.000000 23.222073
RightHandThumb1 -24.326973 -0.000000 -32.862282
LeftUpLeg -40.259832 6.347035 2.929952
LeftLeg 25.490619 -0.000000 -0.000000
LeftFoot -10.682119 19.807985 13.179869
LeftToeBase 0.666270 -0.000000 -0.000000
RightUpLeg -140.226679 4.731098 13.006799
RightLeg 114.201468 -0.000000 -0.000000
RightFoot 32.693435 -13.251840 12.421713
RightToeBase 43.494369 -0.000000 -0.000000
238
root 5.198158 32.163767 -5.113224 32.021760 -24.082892 -15.449842
Spine -16.383784 -10.363207 19.891974
Head -12.620297 2.361917 2.193199
LeftShoulder 2.826842 38.847771 23.590937
LeftArm 82.098427 18.784636 -54.948401
LeftForeArm 19.371921 -0.000000 47.497217
LeftHand 49.188816 -0.000000 6.329966
LeftHandThumb1 -26.253704 0.000000 33.147579
RightShoulder 5.140121 -41.119190 -16.010305
RightArm 81.353878 -6.172500 53.641258
RightForeArm 44.259580 -0.000000 48.514542
RightHand 7.932895 -0.000000 23.126621
RightHandThumb1 -24.326973 -0.000000 -32.862282
LeftUpLeg -40.274926 6.635759 2.815833
LeftLeg 25.559975 -0.000000 -0.000000
LeftFoot -10.748223 19.870238 13.056328
LeftToeBase 0.679342 -0.000000 -0.000000
RightUpLeg -140.230515 5.123808 13.044161
RightLeg 114.506690 -0.000000 -0.000000
RightFoot 33.062905 -13.541313 12.571031
RightToeBase 43.523015 -0.000000 -0.000000
239
root 5.205696 32.165205 -5.113476 32.095985 -24.427694 -15.533920
Spine -16.388105 -10.298939 19.835093
Head -12.443386 2.516494 2.329895
LeftShoulder 2.961449 38.918519 23.801628
LeftArm 81.753622 18.926753 -55.166911
LeftForeArm 19.076534 0.000000 47.830527
LeftHand 49.476694 0.000000 6.463359
LeftHandThumb1 -26.253704 0.000000 33.147579
RightShoulder 5.180233 -40.930958 -16.125421
RightArm 81.393730 -6.435720 53.645899
RightForeArm 44.561706 -0.000000 48.359045
RightHand 7.877494 0.000000 23.043996
RightHandThumb1 -24.326973 -0.000000 -32.862282
LeftUpLeg -40.267260 6.874684 2.736142
LeftLeg 25.582192 -0.000000 -0.000000
LeftFoot -10.784043 19.958404 12.983584
LeftToeBase 0.676751 -0.000000 -0.000000
RightUpLeg -140.283453 5.445651 13.169948
RightLeg 114.868572 -0.000000 -0.000000
RightFoot 33.438889 -13.744808 12.543167
RightToeBase 43.265392 -0.000000 -0.000000
240
root 5.210652 32.168797 -5.116765 32.208056 -24.771260 -15.623511
Spine -16.437654 -10.222234 19.768905
Head -12.270972 2.690776 2.456735
LeftShoulder 3.107437 39.040274 24.027395
LeftArm 81.407878 19.003719 -55.390142
LeftForeArm 18.961223 -0.000000 48.354609
LeftHand 49.717512 -0.000000 6.593358
LeftHandThumb1 -26.253704 0.000000 33.147579
RightShoulder 5.396258 -40.754655 -16.392224
RightArm 81.256287 -6.673582 53.746034
RightForeArm 45.061047 -0.000000 48.408466
RightHand 7.820031 -0.000000 22.982494
RightHandThumb1 -24.326973 -0.000000 -32.862282
LeftUpLeg -40.273924 7.125441 2.658440
LeftLeg 25.557334 -0.000000 -0.000000
LeftFoot -10.794124 20.052824 12.962467
LeftToeBase 0.671285 -0.000000 -0.000000
RightUpLeg -140.405534 5.769253 13.193057
RightLeg 115.214567 -0.000000 -0.000000
RightFoot 33.843882 -13.894304 12.600651
RightToeBase 43.233729 -0.000000 -0.000000
